<svg width="23" height="8" viewBox="0 0 23 8" fill="none" xmlns="http://www.w3.org/2000/svg">
<path fill-rule="evenodd" clip-rule="evenodd" d="M5.75024 7.38883H3.75974L2.2671 1.6118C2.19625 1.34606 2.04583 1.11113 1.82455 1.0004C1.27233 0.72214 0.663826 0.500687 0 0.388998V0.166582H3.20655C3.6491 0.166582 3.98101 0.500687 4.03633 0.888711L4.81079 5.05587L6.80033 0.166582H8.73552L5.75024 7.38883ZM9.84191 7.38883H7.96204L9.51 0.166582H11.3899L9.84191 7.38883ZM13.8219 2.16735C13.8772 1.77836 14.2091 1.55595 14.5964 1.55595C15.2049 1.5001 15.8677 1.61179 16.4209 1.88909L16.7528 0.334105C16.1997 0.111689 15.5911 0 15.0389 0C13.2144 0 11.8867 1.00039 11.8867 2.3888C11.8867 3.44503 12.8271 3.99963 13.491 4.33373C14.2091 4.66687 14.4857 4.88929 14.4304 5.22243C14.4304 5.72214 13.8772 5.94456 13.325 5.94456C12.6612 5.94456 11.9974 5.77799 11.3898 5.49973L11.0579 7.05567C11.7217 7.33297 12.4399 7.44466 13.1037 7.44466C15.1496 7.49954 16.4209 6.50011 16.4209 5.00001C16.4209 3.11093 13.8219 3.0002 13.8219 2.16735ZM23 7.38883L21.5074 0.166582H19.9041C19.5722 0.166582 19.2403 0.388998 19.1296 0.72214L16.3656 7.38883H18.3008L18.6871 6.33356H21.0648L21.2861 7.38883H23ZM20.1807 2.11151L20.7329 4.83345H19.1849L20.1807 2.11151Z" fill="#172B85"/>
</svg>
