<svg width="23" height="14" viewBox="0 0 23 14" fill="none" xmlns="http://www.w3.org/2000/svg">
<path d="M13.8393 7C13.8393 10.866 10.7413 14 6.91967 14C3.09804 14 0 10.866 0 7C0 3.134 3.09804 0 6.91967 0C10.7413 0 13.8393 3.134 13.8393 7Z" fill="#ED0006"/>
<path d="M22.8163 7C22.8163 10.866 19.7182 14 15.8966 14C12.075 14 8.97694 10.866 8.97694 7C8.97694 3.134 12.075 0 15.8966 0C19.7182 0 22.8163 3.134 22.8163 7Z" fill="#0099DF"/>
<path fill-rule="evenodd" clip-rule="evenodd" d="M11.4082 12.3278C12.896 11.0438 13.8394 9.13336 13.8394 6.99999C13.8394 4.86662 12.896 2.95615 11.4082 1.67222C9.92035 2.95615 8.97694 4.86662 8.97694 6.99999C8.97694 9.13336 9.92035 11.0438 11.4082 12.3278Z" fill="#6C6BBD"/>
</svg>
