<svg width="23" height="10" viewBox="0 0 23 10" fill="none" xmlns="http://www.w3.org/2000/svg">
<path fill-rule="evenodd" clip-rule="evenodd" d="M10.6077 7.51542V4.69588H12.0421C12.6299 4.69588 13.126 4.49607 13.5305 4.102L13.6275 4.00209C14.3663 3.1862 14.3178 1.91519 13.5305 1.16035C13.1368 0.760726 12.5976 0.544264 12.0421 0.555365H9.73947V7.51542H10.6077ZM10.6078 3.84115V1.41012H12.0641C12.3769 1.41012 12.6735 1.53223 12.8947 1.75424C13.3639 2.22046 13.3747 2.9975 12.9216 3.48038C12.7005 3.71904 12.3877 3.85225 12.0641 3.84115H10.6078ZM17.6774 3.12514C17.3053 2.77547 16.7984 2.59786 16.1567 2.59786C15.3316 2.59786 14.7115 2.90868 14.3016 3.52476L15.0674 4.01873C15.3478 3.59691 15.7307 3.386 16.216 3.386C16.5234 3.386 16.82 3.50256 17.0519 3.71347C17.2784 3.91328 17.4078 4.20189 17.4078 4.50716V4.71252C17.0734 4.52381 16.6528 4.4239 16.1351 4.4239C15.5312 4.4239 15.0458 4.56821 14.6845 4.86238C14.3232 5.15654 14.1399 5.54506 14.1399 6.03904C14.1291 6.48861 14.3178 6.91598 14.6522 7.2046C14.9919 7.51541 15.4233 7.67082 15.9302 7.67082C16.5288 7.67082 17.0033 7.39886 17.3646 6.85493H17.4024V7.51541H18.2329V4.57931C18.2329 3.96323 18.0495 3.4748 17.6774 3.12514ZM15.3209 6.63841C15.1429 6.5052 15.0351 6.28874 15.0351 6.05563C15.0351 5.79476 15.1537 5.5783 15.3856 5.40624C15.6229 5.23419 15.9196 5.14538 16.2702 5.14538C16.7556 5.13983 17.1331 5.25084 17.4028 5.47285C17.4028 5.85027 17.2572 6.17773 16.9713 6.45525C16.7124 6.72166 16.3619 6.87152 15.9951 6.87152C15.7524 6.87707 15.5151 6.79382 15.3209 6.63841ZM20.0988 9.60789L23 2.75329H22.0563L20.7135 6.17227H20.6974L19.3222 2.75329H18.3785L20.2821 7.21017L19.2036 9.60789H20.0988Z" fill="#3C4043"/>
<path d="M7.61033 4.08531C7.61033 3.81334 7.58876 3.54138 7.54561 3.27497H3.88403V4.8124H5.98176C5.89548 5.30637 5.61506 5.75039 5.20522 6.02791V7.02696H6.45631C7.1897 6.33317 7.61033 5.30637 7.61033 4.08531Z" fill="#4285F4"/>
<path d="M3.8841 7.99274C4.93026 7.99274 5.81465 7.63752 6.45637 7.02699L5.20529 6.02794C4.85477 6.27215 4.40718 6.41091 3.8841 6.41091C2.87029 6.41091 2.01286 5.70602 1.70548 4.76247H0.416649V5.79482C1.07455 7.14354 2.41731 7.99274 3.8841 7.99274Z" fill="#34A853"/>
<path d="M1.70568 4.7623C1.54388 4.26833 1.54388 3.72995 1.70568 3.23042V2.20362H0.416645C-0.138882 3.33033 -0.138882 4.6624 0.416645 5.7891L1.70568 4.7623Z" fill="#FBBC04"/>
<path d="M3.8841 1.58207C4.43954 1.57097 4.97341 1.78743 5.37246 2.1815L6.48334 1.03815C5.77691 0.36101 4.84938 -0.010859 3.8841 0.000241554C2.41731 0.000241554 1.07455 0.854986 0.416649 2.20371L1.70548 3.23606C2.01286 2.28696 2.87029 1.58207 3.8841 1.58207Z" fill="#EA4335"/>
</svg>
