<svg width="129" height="40" viewBox="0 0 129 40" fill="none" xmlns="http://www.w3.org/2000/svg">
<g clip-path="url(#clip0_0_154)">
<path d="M12.3309 33.4883L13.8579 27.9715H27.8561C26.8786 29.4582 25.5766 30.7275 24.0384 31.6934C22.1904 32.8492 20.1034 33.487 18.1606 33.487L12.3309 33.4883ZM15.1588 23.293L19.2847 8.37207H24.8698C26.0731 8.37207 27.0982 8.73806 27.8392 9.42834C28.5461 10.0944 28.942 11.043 28.942 12.0939C28.9389 12.5419 28.8757 12.9878 28.754 13.4206C28.3793 14.7756 27.4814 16.0714 26.2089 17.0698L25.5443 17.5946L26.3078 17.9807C28.2761 18.9751 29.4044 20.8575 29.4044 23.1437C29.4044 23.1934 29.4044 23.2419 29.4044 23.2917L15.1588 23.293Z" fill="white"/>
<path d="M25.0801 8.57717C26.1594 8.57717 27.0713 8.89699 27.718 9.50063C28.3647 10.1043 28.675 10.8948 28.675 11.839C28.6722 12.2511 28.6135 12.661 28.5002 13.0588C28.1462 14.3408 27.2868 15.5702 26.0808 16.52L24.7116 17.6013L26.2832 18.3918C27.9904 19.253 29.0158 20.8396 29.144 22.7876H15.8468L19.7796 8.57164H25.0728L25.0801 8.57717ZM27.0144 28.7381C26.1451 29.8313 25.086 30.7757 23.8828 31.5306C22.0766 32.6617 20.0432 33.2834 18.1569 33.2834H12.938L14.1965 28.7436H27.0217L27.0144 28.7381ZM25.0801 7.44189H18.8678L14.297 23.9298H30.3194C30.3413 23.6861 30.3529 23.4452 30.3529 23.2098C30.3529 20.6278 29.042 18.5026 26.8455 17.395C28.1841 16.3372 29.2226 14.914 29.6567 13.3481C29.7957 12.8559 29.8677 12.3487 29.8708 11.839C29.8708 9.30819 27.9627 7.44189 25.0816 7.44189H25.0801ZM29.1746 27.6083H13.2759L11.3824 34.4186H18.1555C22.5748 34.4186 27.0858 31.5112 29.1687 27.6083H29.1746Z" fill="#353522"/>
<path d="M45.7135 25.0647L47.9958 28.994H45.4721L43.374 25.3665H40.1983L39.47 28.994H37.0776L39.633 16.6064H44.5978C47.6803 16.6064 49.4503 17.9881 49.4503 20.3408C49.4545 22.7428 48.0678 24.4241 45.7135 25.0647ZM47.0642 20.5481C47.0642 19.2034 46.0798 18.5485 44.3458 18.5485H41.6274L40.6048 23.4757H43.4333C45.7325 23.4695 47.0642 22.4595 47.0642 20.5481Z" fill="#353522"/>
<path d="M61.6641 19.5402L59.729 28.9838H57.5568L57.7579 28.0107C56.8776 28.7478 55.7448 29.1389 54.5822 29.107C52.1919 29.107 50.295 27.5673 50.295 24.9497C50.295 21.7286 52.6662 19.4272 55.7869 19.4272C57.3027 19.4272 58.4524 19.9241 59.1087 20.9321L59.3818 19.534L61.6641 19.5402ZM58.5243 23.681C58.5243 22.2131 57.5949 21.3098 55.952 21.3098C54.0169 21.3098 52.5942 22.7613 52.5942 24.8491C52.5942 26.317 53.5236 27.2203 55.1665 27.2203C57.1016 27.2203 58.5243 25.7689 58.5243 23.681Z" fill="#353522"/>
<path d="M74.0917 23.5743C74.0917 26.7954 71.7184 29.1173 68.6168 29.1173C67.084 29.1173 65.9153 28.604 65.2759 27.596L64.2914 32.4266H62.0092L64.6556 19.5443H66.8278L66.6267 20.5359C67.5066 19.798 68.6395 19.4062 69.8024 19.4375C72.1926 19.4334 74.0917 20.9588 74.0917 23.5743ZM71.7925 23.681C71.7925 22.2131 70.861 21.3098 69.218 21.3098C67.2851 21.3098 65.8602 22.7613 65.8602 24.8491C65.8602 26.317 66.7918 27.2203 68.4347 27.2203C70.3677 27.2203 71.7925 25.7689 71.7925 23.681Z" fill="#353522"/>
<path d="M77.1743 19.5402H79.4566L77.5215 28.9839H75.2413L77.1743 19.5402ZM77.4665 16.7441C77.4665 15.9475 78.0868 15.3296 79.0183 15.3296C79.8398 15.3296 80.386 15.8593 80.386 16.5142C80.386 17.3805 79.7657 17.9841 78.8363 17.9841C78.6613 17.9941 78.4861 17.9695 78.3213 17.9119C78.1564 17.8543 78.0053 17.7648 77.8772 17.6488C77.7491 17.5329 77.6467 17.3929 77.5761 17.2373C77.5055 17.0818 77.4682 16.914 77.4665 16.7441Z" fill="#353522"/>
<path d="M92.7418 15.8591L90.0403 28.9981H87.8681L88.0798 28.025C87.2024 28.7543 86.0786 29.1446 84.9231 29.1213C82.5138 29.1213 80.6338 27.5816 80.6338 24.964C80.6338 21.7429 82.9881 19.4416 86.1087 19.4416C87.6225 19.4416 88.7912 19.9384 89.4305 20.9115L90.47 15.8673L92.7418 15.8591ZM88.8356 23.6809C88.8356 22.2131 87.9041 21.3098 86.2633 21.3098C84.3282 21.3098 82.9224 22.7612 82.9224 24.8491C82.9224 26.3169 83.854 27.2203 85.4969 27.2203C87.4298 27.2203 88.8356 25.7688 88.8356 23.6809Z" fill="#353522"/>
<path d="M105.332 25.0976C105.332 27.7151 103.004 28.9982 99.6754 28.9982H93.2711L95.8243 16.6106H101.718C104.365 16.6106 105.881 17.5837 105.881 19.3883C105.881 20.9814 104.913 22.0797 103.599 22.5929C104.676 22.9727 105.332 23.8329 105.332 25.0976ZM102.961 25.0976C102.961 23.9992 102.114 23.6112 100.66 23.6112H96.7368L96.0085 27.1854H99.8406C101.812 27.1854 102.961 26.4772 102.961 25.0976ZM97.8144 18.4069L97.1031 21.8231H100.478C102.248 21.8231 103.397 21.1333 103.397 19.7701C103.397 18.8319 102.595 18.4069 101.189 18.4069H97.8144Z" fill="#353522"/>
<path d="M107.03 24.9558C107.03 21.7881 109.438 19.4333 112.814 19.4333C115.698 19.4333 117.559 21.0614 117.559 23.5742C117.559 26.7419 115.133 29.1172 111.756 29.1172C108.891 29.1131 107.03 27.4502 107.03 24.9558ZM115.26 23.6809C115.26 22.2131 114.328 21.3098 112.687 21.3098C110.752 21.3098 109.33 22.7612 109.33 24.8491C109.33 26.3169 110.259 27.2202 111.902 27.2202C113.837 27.2202 115.26 25.7688 115.26 23.6809Z" fill="#353522"/>
<path d="M124.33 24.2434L127.103 28.9857H124.694L122.833 25.701L119.64 28.9857H117.011L121.901 24.1058L119.257 19.54H121.628L123.383 22.6359L126.449 19.54H129.004L124.33 24.2434Z" fill="#353522"/>
</g>
<defs>
<clipPath id="clip0_0_154">
<rect width="129" height="40" fill="white"/>
</clipPath>
</defs>
</svg>
