<svg width="26" height="8" viewBox="0 0 26 8" fill="none" xmlns="http://www.w3.org/2000/svg">
<path fill-rule="evenodd" clip-rule="evenodd" d="M16.1099 7.28315C16.2902 6.81868 16.6915 5.77782 16.5007 5.5256H16.5021C16.3121 5.27283 15.2457 5.40548 14.766 5.46514L14.765 5.46527C14.619 5.48344 14.5966 5.35188 14.7278 5.25666C15.5795 4.63665 16.975 4.81401 17.1371 5.02334C17.2991 5.23268 17.0929 6.68203 16.2951 7.374C16.1724 7.48012 16.0552 7.42343 16.1099 7.28315ZM10.3786 7.99978C12.2336 7.99978 14.3938 7.39285 15.8819 6.25532V6.2575C16.1281 6.06561 15.917 5.78359 15.6658 5.89407C14.0415 6.60387 12.2979 6.97439 10.5351 6.98436C8.08932 6.98436 5.72355 6.28948 3.80961 5.13596C3.64193 5.03493 3.51705 5.21301 3.65737 5.34311C5.49996 7.06545 7.89693 8.01288 10.3786 7.99978Z" fill="#FF9900"/>
<path fill-rule="evenodd" clip-rule="evenodd" d="M22.5085 4.59378H23.2984H23.2991C23.3818 4.59539 23.4505 4.52813 23.4535 4.44256V2.17403C23.4535 1.8891 23.4682 1.6318 23.5791 1.37449C23.6552 1.17875 23.8345 1.04697 24.0379 1.03723C24.5432 1.03723 24.5384 1.6109 24.5346 2.06159C24.5343 2.0996 24.5339 2.13674 24.5339 2.17258V4.46145C24.5437 4.53489 24.6028 4.59057 24.6743 4.59378H25.4713C25.5468 4.5954 25.6119 4.53884 25.6235 4.46145V1.80915C25.6235 1.40138 25.6235 0.833706 25.4165 0.496444C25.1927 0.133015 24.8462 0 24.4912 0C23.9439 0 23.6331 0.274752 23.4114 0.851151H23.396V0.206428C23.38 0.139028 23.3226 0.0909028 23.2556 0.0886767H22.5204C22.4427 0.0866966 22.3765 0.146736 22.3681 0.22678V4.44256C22.3691 4.52339 22.4305 4.58953 22.5085 4.59378ZM21.7648 2.38265C21.7648 1.0525 21.1285 0.00582225 19.9519 0.00582225C18.8055 0.00582225 18.1691 1.03505 18.1691 2.33831C18.1691 3.64157 18.7978 4.68824 19.9519 4.68824C21.0632 4.68824 21.7648 3.66846 21.7648 2.38265ZM19.3381 2.20525C19.3381 1.69063 19.3753 0.866373 19.9597 0.866373C20.2108 0.866373 20.3883 0.983397 20.4774 1.27414C20.5813 1.61068 20.596 2.03662 20.596 2.39132C20.596 2.9321 20.5729 3.81887 19.952 3.81887C19.3378 3.81887 19.338 2.74372 19.3381 2.2223L19.3381 2.20525ZM4.51338 4.60248H5.30547H5.30618C5.34593 4.60341 5.38442 4.58793 5.41313 4.55942C5.44183 4.53091 5.45839 4.49172 5.45912 4.45053V2.21689L5.45911 2.18193C5.45878 1.69626 5.45835 1.05392 6.00636 1.05392C6.51299 1.05392 6.50515 1.6183 6.49882 2.07405C6.49814 2.12321 6.49748 2.1711 6.49748 2.21689V4.45125C6.49882 4.53194 6.56003 4.59788 6.63779 4.60248H7.432C7.47163 4.60322 7.50994 4.58765 7.53849 4.55916C7.56705 4.53067 7.5835 4.49159 7.58424 4.45053V2.21689L7.58417 2.16379C7.58369 1.92713 7.58304 1.60777 7.65861 1.40935C7.73565 1.20653 7.9219 1.07075 8.13218 1.0641C8.3616 1.0641 8.53911 1.14405 8.59804 1.42752C8.62812 1.56395 8.62422 1.88022 8.62164 2.08995V2.08997L8.62164 2.09018C8.62103 2.13959 8.62049 2.18308 8.62049 2.21689V4.45125C8.62149 4.53209 8.68289 4.59823 8.76081 4.60248H9.5529C9.59266 4.60341 9.63115 4.58793 9.65986 4.55942C9.68856 4.53091 9.70512 4.49172 9.70585 4.45053V1.79095C9.70585 1.72611 9.70693 1.65984 9.70803 1.59285C9.71451 1.19574 9.72141 0.773029 9.5059 0.469525C9.24465 0.125255 8.82451 -0.0463013 8.40679 0.0207295C7.98907 0.0877603 7.6387 0.382959 7.49023 0.792977C7.26782 0.26019 6.95 0.0123318 6.46169 0.0123318C5.97339 0.0123318 5.61067 0.26019 5.41843 0.792977H5.4037V0.242746C5.39952 0.164321 5.33908 0.101701 5.26338 0.0973742H4.5246C4.44302 0.0965391 4.37572 0.163353 4.37306 0.247834V4.46361C4.38025 4.53947 4.4399 4.59849 4.51338 4.60248ZM3.13471 4.63451C3.08254 4.68139 3.00756 4.68924 2.94738 4.65414C2.7229 4.46064 2.65522 4.35604 2.55129 4.19542L2.55127 4.19539L2.55122 4.1953L2.55113 4.19518C2.5333 4.16761 2.5144 4.1384 2.49345 4.10681C2.05777 4.56619 1.74977 4.70356 1.18639 4.70356C0.519177 4.70356 0 4.2769 0 3.42356C0 2.75704 0.350795 2.3042 0.841909 2.08178C1.20455 1.91691 1.68842 1.86574 2.10674 1.8215C2.18452 1.81328 2.26004 1.80529 2.33209 1.79686V1.69073C2.33209 1.67048 2.33225 1.64984 2.33241 1.62892C2.33379 1.44798 2.33534 1.24652 2.23597 1.09471C2.13915 0.943524 1.95533 0.881741 1.79116 0.881741C1.48878 0.881741 1.21936 1.04238 1.15341 1.37455C1.14506 1.45204 1.0875 1.51405 1.0131 1.52574L0.251169 1.43924C0.213149 1.4336 0.179023 1.41206 0.156749 1.37964C0.134475 1.34723 0.126001 1.30677 0.133302 1.2677C0.309401 0.302435 1.15131 0.0109645 1.90552 0.0109645C2.29139 0.0109645 2.79514 0.117086 3.09822 0.419459C3.45402 0.764572 3.45182 1.21636 3.44942 1.71009V1.71012V1.71014V1.71017V1.71019V1.71022C3.44922 1.75094 3.44902 1.79194 3.44902 1.8332V3.11174C3.44902 3.45608 3.57234 3.62736 3.70223 3.80778C3.71766 3.82921 3.73318 3.85077 3.7486 3.87276C3.79911 3.94545 3.81034 4.03631 3.7486 4.09082C3.58653 4.2311 3.29888 4.48987 3.14102 4.63596L3.13471 4.63451ZM2.33564 2.63267L2.33566 2.67247C2.33594 2.9748 2.33618 3.23117 2.1876 3.50489C2.06131 3.73604 1.86136 3.8785 1.63826 3.8785C1.33447 3.8785 1.15696 3.63864 1.15696 3.28248C1.15696 2.58324 1.76244 2.45604 2.33564 2.45604V2.63267ZM14.09 3.80466C14.1054 3.82613 14.121 3.84772 14.1364 3.86974C14.1897 3.94534 14.201 4.03401 14.1329 4.08417C13.9708 4.22445 13.6832 4.48394 13.5253 4.62931C13.4728 4.67554 13.3981 4.68308 13.338 4.64821C13.1126 4.45388 13.0458 4.35082 12.9404 4.1881L12.9403 4.18804L12.9403 4.18797L12.9403 4.18795C12.9227 4.16082 12.904 4.13203 12.8834 4.10088C12.4484 4.56026 12.1383 4.69763 11.577 4.69763C10.9098 4.69763 10.3906 4.27097 10.3906 3.41836C10.3906 2.75111 10.7393 2.29828 11.236 2.07586C11.5995 1.91036 12.0861 1.85943 12.5056 1.81551C12.5817 1.80754 12.6556 1.79981 12.7262 1.79166V1.68772C12.7262 1.66756 12.7264 1.64702 12.7265 1.62621C12.7279 1.44519 12.7295 1.24366 12.6294 1.09242C12.5354 0.941233 12.3481 0.878723 12.1846 0.878723C11.8822 0.878723 11.6142 1.03936 11.5476 1.37153C11.539 1.44891 11.4815 1.51079 11.4072 1.52272L10.639 1.43695C10.6007 1.43151 10.5663 1.40994 10.5438 1.37733C10.5214 1.34472 10.5129 1.30397 10.5204 1.26468C10.6972 0.29869 11.5391 0.00794715 12.2933 0.00794715C12.6785 0.00794715 13.1823 0.114068 13.486 0.416441C13.8426 0.75977 13.8401 1.20806 13.8373 1.69927C13.8371 1.74259 13.8368 1.78624 13.8368 1.83018V3.10945C13.8368 3.45307 13.9601 3.62429 14.09 3.80466ZM12.0303 3.87408C12.2527 3.87408 12.4533 3.73162 12.5789 3.5012C12.728 3.22599 12.7278 2.9684 12.7276 2.66229L12.7276 2.6297V2.45235C12.1544 2.45235 11.549 2.57882 11.549 3.27879C11.549 3.63422 11.7265 3.87408 12.0303 3.87408ZM14.807 0.233356V0.833741C14.8066 0.874925 14.8225 0.914485 14.851 0.943193C14.8795 0.971902 14.9181 0.987249 14.9578 0.985655H16.3217L14.7579 3.3116C14.6865 3.43637 14.6528 3.5804 14.661 3.72518V4.33938C14.661 4.42805 14.7558 4.52909 14.8463 4.47893C15.7088 4.0156 16.7345 4.01371 17.5986 4.47385C17.6975 4.52691 17.7908 4.42442 17.7908 4.33574V3.69029C17.7882 3.5916 17.7346 3.50197 17.6505 3.45552C17.1952 3.19022 16.6655 3.11244 16.1646 3.1248L17.5144 1.12885C17.64 0.950038 17.7102 0.836649 17.7102 0.750152V0.233356C17.7106 0.192303 17.6948 0.152861 17.6664 0.124175C17.6381 0.0954898 17.5996 0.0800526 17.56 0.0814431H14.955C14.9154 0.0791352 14.8766 0.0943467 14.8484 0.123304C14.8202 0.152262 14.8051 0.192252 14.807 0.233356Z" fill="black"/>
</svg>
