<svg width="27" height="7" viewBox="0 0 27 7" fill="none" xmlns="http://www.w3.org/2000/svg">
<path fill-rule="evenodd" clip-rule="evenodd" d="M3.02505 0L0 6.99111H3.62141L4.07036 5.87644H5.09656L5.54551 6.99111H9.53167V6.14036L9.88686 6.99111H11.9488L12.304 6.12238V6.99111H20.5941L21.6022 5.90538L22.5461 6.99111L26.8041 7.0001L23.7694 3.51507L26.8041 0H22.6121L21.6308 1.06566L20.7167 0H11.6981L10.9237 1.80447L10.1311 0H6.51722V0.821806L6.1152 0H3.02505ZM15.4047 0.992748H20.1653L21.6213 2.63526L23.1243 0.992748H24.5803L22.368 3.51409L24.5803 6.00637H23.0582L21.6022 4.34478L20.0915 6.00637H15.4047V0.992748ZM16.5803 2.94722V2.03145V2.03057H19.5508L20.8469 3.49513L19.4934 4.96769H16.5803V3.96793H19.1774V2.94722H16.5803ZM3.7257 0.992748H5.49094L7.49746 5.73346V0.992748H9.43122L10.981 4.39181L12.4093 0.992748H14.3334V6.00933H13.1627L13.1531 2.07837L11.4462 6.00933H10.3989L8.68252 2.07837V6.00933H6.27398L5.81737 4.88468H3.35046L2.89479 6.00834H1.60432L3.7257 0.992748ZM3.77175 3.845L4.5845 1.84153L5.3963 3.845H3.77175Z" fill="white"/>
</svg>
