<svg width="22" height="22" viewBox="0 0 22 22" fill="none" xmlns="http://www.w3.org/2000/svg">
<path d="M12.8333 8.525V11.1833H15.2167C15.4 11.1833 15.4917 11.3667 15.4917 11.55L15.125 13.2917C15.125 13.3833 14.9417 13.475 14.85 13.475H12.8333V20.1667H10.0833V13.5667H8.525C8.34167 13.5667 8.25 13.475 8.25 13.2917V11.55C8.25 11.3667 8.34167 11.275 8.525 11.275H10.0833V8.25C10.0833 6.69167 11.275 5.5 12.8333 5.5H15.3083C15.4917 5.5 15.5833 5.59167 15.5833 5.775V7.975C15.5833 8.15833 15.4917 8.25 15.3083 8.25H13.1083C12.925 8.25 12.8333 8.34167 12.8333 8.525Z" stroke="#92928A" stroke-width="1.5" stroke-miterlimit="10" stroke-linecap="round"/>
<path d="M13.75 20.1666H8.24999C3.66666 20.1666 1.83333 18.3333 1.83333 13.7499V8.24992C1.83333 3.66659 3.66666 1.83325 8.24999 1.83325H13.75C18.3333 1.83325 20.1667 3.66659 20.1667 8.24992V13.7499C20.1667 18.3333 18.3333 20.1666 13.75 20.1666Z" stroke="#92928A" stroke-width="1.5" stroke-linecap="round" stroke-linejoin="round"/>
</svg>
