<svg width="24" height="14" viewBox="0 0 24 14" fill="none" xmlns="http://www.w3.org/2000/svg">
<path fill-rule="evenodd" clip-rule="evenodd" d="M11.734 12.3277C10.4911 13.3704 8.87897 13.9999 7.11733 13.9999C3.18654 13.9999 0 10.8659 0 6.99995C0 3.13399 3.18654 0 7.11733 0C8.87897 0 10.4911 0.629466 11.734 1.67218C12.9768 0.629468 14.5889 4.13064e-06 16.3506 4.13064e-06C20.2814 4.13064e-06 23.4679 3.13399 23.4679 6.99996C23.4679 10.8659 20.2814 13.9999 16.3506 13.9999C14.5889 13.9999 12.9768 13.3704 11.734 12.3277Z" fill="#ED0006"/>
<path fill-rule="evenodd" clip-rule="evenodd" d="M11.7338 12.3277C13.2641 11.0438 14.2345 9.13332 14.2345 6.99995C14.2345 4.86659 13.2641 2.95612 11.7338 1.6722C12.9767 0.629474 14.5888 0 16.3505 0C20.2813 0 23.4678 3.13399 23.4678 6.99995C23.4678 10.8659 20.2813 13.9999 16.3505 13.9999C14.5888 13.9999 12.9767 13.3704 11.7338 12.3277Z" fill="#F9A000"/>
<path fill-rule="evenodd" clip-rule="evenodd" d="M11.7339 12.3277C13.2642 11.0438 14.2346 9.1333 14.2346 6.99994C14.2346 4.86657 13.2642 2.95611 11.7339 1.67219C10.2036 2.95611 9.23325 4.86657 9.23325 6.99994C9.23325 9.1333 10.2036 11.0438 11.7339 12.3277Z" fill="#FF5E00"/>
</svg>
