<svg width="22" height="22" viewBox="0 0 22 22" fill="none" xmlns="http://www.w3.org/2000/svg">
<path d="M8.25 20.1666H13.75C18.3333 20.1666 20.1667 18.3333 20.1667 13.7499V8.24992C20.1667 3.66659 18.3333 1.83325 13.75 1.83325H8.25C3.66666 1.83325 1.83333 3.66659 1.83333 8.24992V13.7499C1.83333 18.3333 3.66666 20.1666 8.25 20.1666Z" stroke="#92928A" stroke-width="1.375" stroke-linecap="round" stroke-linejoin="round"/>
<path d="M11 14.2084C12.7719 14.2084 14.2083 12.772 14.2083 11.0001C14.2083 9.22817 12.7719 7.79175 11 7.79175C9.22809 7.79175 7.79167 9.22817 7.79167 11.0001C7.79167 12.772 9.22809 14.2084 11 14.2084Z" stroke="#92928A" stroke-width="1.375" stroke-linecap="round" stroke-linejoin="round"/>
<path d="M16.1664 6.41659H16.177" stroke="#92928A" stroke-width="1.83333" stroke-linecap="round" stroke-linejoin="round"/>
</svg>
