<svg width="129" height="41" viewBox="0 0 129 41" fill="none" xmlns="http://www.w3.org/2000/svg">
<g clip-path="url(#clip0_0_387)">
<path d="M12.3309 34.1472L13.8579 28.5218H27.8561C26.8786 30.0378 25.5766 31.332 24.0384 32.3169C22.1904 33.4954 20.1034 34.1458 18.1606 34.1458L12.3309 34.1472ZM15.1588 23.7513L19.2847 8.53687H24.8698C26.0731 8.53687 27.0982 8.91006 27.8391 9.61391C28.5461 10.2931 28.942 11.2603 28.942 12.3319C28.9389 12.7888 28.8757 13.2434 28.754 13.6847C28.3793 15.0664 27.4814 16.3876 26.2088 17.4057L25.5443 17.9408L26.3078 18.3345C28.276 19.3485 29.4044 21.2679 29.4044 23.599C29.4044 23.6498 29.4044 23.6992 29.4044 23.7499L15.1588 23.7513Z" fill="white"/>
<path d="M25.0801 8.74582C26.1594 8.74582 27.0713 9.07193 27.718 9.68744C28.3647 10.303 28.675 11.109 28.675 12.0718C28.6722 12.492 28.6135 12.91 28.5002 13.3156C28.1462 14.6228 27.2868 15.8764 26.0808 16.8449L24.7116 17.9474L26.2832 18.7535C27.9904 19.6316 29.0158 21.2494 29.144 23.2357H15.8468L19.7796 8.74018H25.0728L25.0801 8.74582ZM27.0144 29.3033C26.1451 30.418 25.086 31.3809 23.8828 32.1507C22.0766 33.3041 20.0432 33.938 18.1569 33.938H12.938L14.1965 29.3089H27.0217L27.0144 29.3033ZM25.0801 7.58822H18.8678L14.297 24.4004H30.3194C30.3413 24.1519 30.3529 23.9063 30.3529 23.6663C30.3529 21.0334 29.042 18.8664 26.8455 17.7371C28.1841 16.6585 29.2226 15.2073 29.6567 13.6106C29.7957 13.1087 29.8677 12.5915 29.8708 12.0718C29.8708 9.49122 27.9627 7.58822 25.0816 7.58822H25.0801ZM29.1746 28.1513H13.2759L11.3824 35.0956H18.1555C22.5748 35.0956 27.0858 32.131 29.1687 28.1513H29.1746Z" fill="white"/>
<path d="M45.7135 25.5577L47.9958 29.5644H45.4721L43.374 25.8655H40.1983L39.47 29.5644H37.0776L39.633 16.9331H44.5978C47.6803 16.9331 49.4503 18.342 49.4503 20.7409C49.4545 23.1902 48.0678 24.9046 45.7135 25.5577ZM47.0642 20.9524C47.0642 19.5812 46.0798 18.9135 44.3458 18.9135H41.6274L40.6048 23.9375H43.4333C45.7326 23.9312 47.0642 22.9013 47.0642 20.9524Z" fill="white"/>
<path d="M61.6641 19.9245L59.729 29.5539H57.5568L57.7579 28.5617C56.8776 29.3133 55.7448 29.712 54.5822 29.6795C52.1919 29.6795 50.295 28.1095 50.295 25.4405C50.295 22.1561 52.6662 19.8094 55.7869 19.8094C57.3027 19.8094 58.4524 20.316 59.1087 21.3438L59.3818 19.9183L61.6641 19.9245ZM58.5243 24.1468C58.5243 22.6501 57.5949 21.729 55.952 21.729C54.0169 21.729 52.5942 23.209 52.5942 25.3379C52.5942 26.8347 53.5236 27.7558 55.1665 27.7558C57.1016 27.7558 58.5243 26.2758 58.5243 24.1468Z" fill="white"/>
<path d="M74.0917 24.0378C74.0917 27.3223 71.7184 29.6899 68.6168 29.6899C67.084 29.6899 65.9153 29.1665 65.2759 28.1387L64.2914 33.0643H62.0092L64.6556 19.9286H66.8278L66.6267 20.9397C67.5066 20.1873 68.6395 19.7878 69.8024 19.8197C72.1926 19.8156 74.0917 21.3709 74.0917 24.0378ZM71.7925 24.1467C71.7925 22.6499 70.861 21.7289 69.218 21.7289C67.2851 21.7289 65.8602 23.2089 65.8602 25.3378C65.8602 26.8345 66.7918 27.7556 68.4347 27.7556C70.3677 27.7556 71.7925 26.2756 71.7925 24.1467Z" fill="white"/>
<path d="M77.1743 19.9244H79.4566L77.5215 29.5538H75.2413L77.1743 19.9244ZM77.4665 17.0733C77.4665 16.2611 78.0868 15.631 79.0183 15.631C79.8398 15.631 80.386 16.171 80.386 16.8388C80.386 17.7222 79.7657 18.3377 78.8363 18.3377C78.6613 18.3479 78.4861 18.3228 78.3213 18.2641C78.1564 18.2053 78.0053 18.114 77.8773 17.9958C77.7492 17.8776 77.6467 17.7348 77.5761 17.5762C77.5055 17.4176 77.4682 17.2465 77.4665 17.0733Z" fill="white"/>
<path d="M92.7418 16.171L90.0403 29.5685H87.8681L88.0798 28.5762C87.2024 29.3199 86.0786 29.7179 84.9231 29.6941C82.5138 29.6941 80.6338 28.1241 80.6338 25.455C80.6338 22.1706 82.9881 19.8239 86.1087 19.8239C87.6225 19.8239 88.7912 20.3305 89.4305 21.3228L90.4701 16.1794L92.7418 16.171ZM88.8356 24.1467C88.8356 22.65 87.9041 21.7289 86.2633 21.7289C84.3282 21.7289 82.9224 23.2089 82.9224 25.3378C82.9224 26.8346 83.854 27.7556 85.4969 27.7556C87.4298 27.7556 88.8356 26.2756 88.8356 24.1467Z" fill="white"/>
<path d="M105.332 25.5912C105.332 28.2602 103.004 29.5686 99.6754 29.5686H93.2711L95.8243 16.9373H101.718C104.365 16.9373 105.881 17.9296 105.881 19.7696C105.881 21.394 104.913 22.514 103.599 23.0373C104.676 23.4246 105.332 24.3017 105.332 25.5912ZM102.961 25.5912C102.961 24.4713 102.114 24.0756 100.66 24.0756H96.7368L96.0085 27.7201H99.8406C101.812 27.7201 102.961 26.9979 102.961 25.5912ZM97.8145 18.769L97.1031 22.2523H100.478C102.248 22.2523 103.397 21.5489 103.397 20.159C103.397 19.2023 102.595 18.769 101.189 18.769H97.8145Z" fill="white"/>
<path d="M107.03 25.4466C107.03 22.2166 109.438 19.8155 112.814 19.8155C115.698 19.8155 117.559 21.4755 117.559 24.0378C117.559 27.2678 115.133 29.6898 111.756 29.6898C108.891 29.6857 107.03 27.99 107.03 25.4466ZM115.26 24.1467C115.26 22.6499 114.328 21.7288 112.687 21.7288C110.752 21.7288 109.33 23.2088 109.33 25.3378C109.33 26.8345 110.259 27.7556 111.902 27.7556C113.837 27.7556 115.26 26.2756 115.26 24.1467Z" fill="white"/>
<path d="M124.33 24.7204L127.103 29.5561H124.694L122.833 26.2067L119.64 29.5561H117.011L121.901 24.5802L119.257 19.9246H121.628L123.383 23.0813L126.449 19.9246H129.004L124.33 24.7204Z" fill="white"/>
</g>
<defs>
<clipPath id="clip0_0_387">
<rect width="128.812" height="40.7273" fill="white" transform="scale(1.00146)"/>
</clipPath>
</defs>
</svg>
